HIERARCHY
ROOT hip
{
  OFFSET 0.0 0.0 0.0
  CHANNELS 6 Xposition Yposition Zposition Zrotation Yrotation Xrotation
  JOINT torso
  {
    OFFSET 0.0 0.0 0.0
    CHANNELS 3 Zrotation Xrotation Yrotation
    JOINT neck
    {
      OFFSET -20.11218299999996 327.95800799999995 66.30578600000035
      CHANNELS 3 Zrotation Xrotation Yrotation
      JOINT head
      {
        OFFSET 18.28939800000012 288.83178699999996 217.81652800000006
        CHANNELS 3 Zrotation Xrotation Yrotation
        End Site
        {
          OFFSET 0.0 0.0 0.0
        }
      }
    }
    JOINT left_collar
    {
      OFFSET -20.11218299999996 327.95800799999995 66.30578600000035
      CHANNELS 3 Zrotation Xrotation Yrotation
      JOINT left_upper_arm
      {
        OFFSET -127.08163400000001 -16.17407199999991 15.44799799999987
        CHANNELS 3 Zrotation Xrotation Yrotation
        JOINT left_forearm
        {
          OFFSET -234.267792 45.78796399999999 109.31286600000021
          CHANNELS 3 Zrotation Xrotation Yrotation
          JOINT left_hand
          {
            OFFSET -259.114014 -33.25433399999997 16.18847699999992
            CHANNELS 3 Zrotation Xrotation Yrotation
            End Site
            {
              OFFSET 0.0 0.0 0.0
            }
          }
        }
      }
    }
    JOINT right_collar
    {
      OFFSET -20.11218299999996 327.95800799999995 66.30578600000035
      CHANNELS 3 Zrotation Xrotation Yrotation
      JOINT right_upper_arm
      {
        OFFSET 164.513184 1.5733030000000099 4.892333999999892
        CHANNELS 3 Zrotation Xrotation Yrotation
        JOINT right_forearm
        {
          OFFSET 260.742027 48.718444999999974 144.35229500000014
          CHANNELS 3 Zrotation Xrotation Yrotation
          JOINT right_hand
          {
            OFFSET 287.85150899999996 -44.57171600000015 13.96813899999961
            CHANNELS 3 Zrotation Xrotation Yrotation
            End Site
            {
              OFFSET 0.0 0.0 0.0
            }
          }
        }
      }
    }
  }
}
MOTION
Frames: 13
Frame Time: 0.01
-303.33932893658954 259.3510325961089 1406.298923974806 -1.0433872254682142 -0.802835633014567 -24.82166447201987 0.7842543494063368 0.9885457929579797 -0.09136854054005543 1.2989510484841373 -14.019218700077126 -0.22603647532309143 0.0 0.0 0.0 2.4874860456533168 1.391771979054749 -7.205471155507533 81.94203687706116 25.63042958317539 20.249628168508867 21.693428721871587 6.241245477778808 -14.525215536623275 0.0 0.0 0.0 -0.13583228755958196 0.01128923193864957 -0.8656386430631726 -46.537944140892485 18.845872513871175 -19.899353177119085 -48.251330316991435 8.23349902888893 8.538125784974271 0.0 0.0 0.0
-303.32422370172685 259.2708011367918 1406.1042947199335 -1.031815153458587 -0.8916034641644742 -24.717084245553597 0.792223312692861 1.0389222647100331 -0.08947734497105374 1.2960574834977987 -14.008413519497276 -0.22425202571870467 0.0 0.0 0.0 2.466417108592266 1.3981250751705832 -7.27313935051092 81.94549275144885 25.631669066135505 20.24943302317926 21.71976421314523 6.253253738822515 -14.54429729132465 0.0 0.0 0.0 -0.15080083419616014 0.012196115908960073 -0.9353862007574335 -46.5248131012059 18.84186039185258 -19.897766754108726 -48.2045115531643 8.2566405545941 8.585924610568018 0.0 0.0 0.0
-303.3086769860371 259.1878051996398 1405.9077540456876 -1.0206818249137553 -0.9788334686597895 -24.614493118507607 0.800268417186154 1.0874642758913062 -0.08771878782327198 1.2928575912256404 -13.997580719004084 -0.22222351245546085 0.0 0.0 0.0 2.4459887185630556 1.404225691842031 -7.338510154340608 81.94845628051429 25.63320974022021 20.248482614793343 21.74610526655012 6.26546918642095 -14.563953433889749 0.0 0.0 0.0 -0.16514963018922782 0.013052463468806072 -1.0027561508678817 -46.51219824604085 18.838081867866563 -19.895975977450508 -48.1571840205143 8.279421881676342 8.6333826825472 0.0 0.0 0.0
-303.290752759455 259.1016395923138 1405.7075898899889 -1.0100305209651423 -1.0637813081387395 -24.514836502940973 0.8083061224424283 1.1334924967226283 -0.0861235735313516 1.2892533991440693 -13.986708179059217 -0.21987299345915645 0.0 0.0 0.0 2.4265175778096393 1.4099886740960639 -7.400614155033178 81.9506107961097 25.635135088004354 20.246471883175378 21.772384719111503 6.2778821707266665 -14.584195840829583 0.0 0.0 0.0 -0.17867211357696464 0.013848586546213968 -1.0668156954679942 -46.50028007874971 18.834599926902083 -19.893974972017794 -48.10917132676044 8.301795197869625 8.68047415730795 0.0 0.0 0.0
-303.26833496360325 259.0119066852612 1405.5019136661435 -0.9999010783138429 -1.1457383750162353 -24.419023656896478 0.8162533017312954 1.176360001942453 -0.08472061087258138 1.2851487890036097 -13.975782275778425 -0.21712410216001515 0.0 0.0 0.0 2.408302839380697 1.4153316334882504 -7.458514466588249 81.95167144808723 25.637526467736212 20.243116090302006 21.79851336790406 6.290474329906273 -14.605024598802398 0.0 0.0 0.0 -0.19116879823729202 0.014575965689437498 -1.1266632292521856 -46.48922316924233 18.831464531068193 -19.891784583957342 -48.060371733985555 8.323716446020203 8.72715932155604 0.0 0.0 0.0
-303.2391599377448 258.91824095089606 1405.2887163113987 -0.9903315287116611 -1.2240453293946443 -24.32791117070839 0.8240293850202522 1.2154691607293286 -0.08353622631145452 1.280452814382286 -13.964789605192664 -0.2139046221547484 0.0 0.0 0.0 2.3916173763399002 1.4201765612714892 -7.511329982922368 81.95139741784247 25.640459679146833 20.238162854485797 21.824376884825263 6.303216376153435 -14.626423552355432 0.0 0.0 0.0 -0.20245211576122057 0.015227337536626084 -1.1814501204922103 -46.4791700599629 18.82870958975095 -19.889455801392856 -48.01078158068417 8.345144618612045 8.773376843935361 0.0 0.0 0.0
-303.2008496940098 258.82033423815756 1405.065925846093 -0.9813596310161069 -1.298105105503333 -24.242287034599357 0.8315583557957893 1.2502881127422336 -0.08259335757380089 1.2750829011513736 -13.953718513012431 -0.2101489768425478 0.0 0.0 0.0 2.376699699462569 1.424451464480781 -7.558258415480785 81.94960192126904 25.64400130370399 20.231403381093372 21.84983453084832 6.316066318266675 -14.648356054113565 0.0 0.0 0.0 -0.21235143258998937 0.015796737128868373 -1.2304021586113336 -46.470235420679174 18.826350355709426 -19.887071964480775 -47.9605131745855 8.366042078295242 8.819038963833888 0.0 0.0 0.0
-303.1509449235662 258.7179607797761 1404.8314642212727 -0.97302420722161 -1.3673951135949822 -24.162855583607545 0.8387705196681552 1.2803663446574303 -0.08191074982113716 1.268967837197708 -13.942560320256062 -0.2058005643923254 0.0 0.0 0.0 2.3637467935501366 1.4280920177646066 -7.598598542085165 81.94615948071952 25.648204932655098 20.222682445736247 21.874719937739258 6.328968258021624 -14.670761140554749 0.0 0.0 0.0 -0.22071811584042772 0.016279504632256386 -1.2728401943232992 -46.46250065819005 18.82438137265022 -19.884749560903188 -47.90980587084476 8.38637599801902 8.86403016381641 0.0 0.0 0.0
-303.0869367235634 258.61100085291275 1404.5833013512993 -0.9653662279929548 -1.4314783636910382 -24.09022362066013 0.8456039797052146 1.3053488833820757 -0.08150218119766733 1.2620504725963668 -13.931310157153739 -0.20081387924818275 0.0 0.0 0.0 2.3529081014341497 1.4310432182775132 -7.631771082112103 81.94101010621401 25.653107410728158 20.21190674604897 21.8988441035142 6.341851873787112 -14.69355035671405 0.0 0.0 0.0 -0.22743049322150816 0.01667226938422324 -1.308199518517751 -46.456009177927776 18.82277508093927 -19.88263746176207 -47.85902949839448 8.406120915386486 8.908209611602238 0.0 0.0 0.0
-303.0062961661507 258.49946196993517 1404.3195044379563 -0.9584296348798239 -1.4900132271407343 -24.024888067167584 0.8520057714189517 1.3249886309937902 -0.08137574802121429 1.2542900622184183 -13.919967350391719 -0.19515636845668036 0.0 0.0 0.0 2.3442808381275184 1.4332610172800109 -7.657337574637374 81.9341602130106 25.658725232241256 20.19905131838328 21.922000611936355 6.354632671187474 -14.716605434272614 0.0 0.0 0.0 -0.23239852513993395 0.0169729256746243 -1.3360474827285005 -46.450762463873595 18.821481158689007 -19.88091452473379 -47.80867982816256 8.425262294897344 8.951417365103746 0.0 0.0 0.0
-302.9065009874563 258.3834964724649 1404.0382810103185 -0.9522619337873282 -1.5427615148591283 -23.96722557958021 0.8579326298851682 1.3391563651028708 -0.08153324374427252 1.2456641892874027 -13.908535348842165 -0.18880997439486547 0.0 0.0 0.0 2.3379067746543756 1.4347138819885858 -7.675016572450873 81.92568029175361 25.665051233708105 20.184163797178606 21.94397294229344 6.3672130400200375 -14.739776995180915 0.0 0.0 0.0 -0.23556797915972044 0.017180614037765433 -1.3560987736635344 -46.446717103049416 18.820426641159983 -19.87978556982425 -47.759366375251446 8.443800882448468 8.993484001341011 0.0 0.0 0.0
-302.78505886318163 258.2634144506974 1403.7380145390046 -0.9469146422165439 -1.589594477551495 -23.91748468167576 0.8633513819320667 1.3478479037180142 -0.0819696708218819 1.2361702102402976 -13.897021216613638 -0.18177231483442444 0.0 0.0 0.0 2.333770601673227 1.435384219381066 -7.684696393438382 81.91569951416938 25.672051734175884 20.167366363229217 21.96454358553014 6.379484112650838 -14.762884417301088 0.0 0.0 0.0 -0.23692386965665735 0.017295719034907567 -1.3682276530144302 -46.443782849297456 18.819516830461573 -19.879475810099834 -47.71179346057863 8.461757513567125 9.034242955644649 0.0 0.0 0.0
-302.639526962891 258.13969102749974 1403.4172920101178 -0.9424437144714126 -1.63049623891439 -23.875781063433998 0.8682389764988743 1.3511878964241506 -0.08267292992972822 1.2258261593594337 -13.885434765641838 -0.1740574476459826 0.0 0.0 0.0 2.331799965058168 1.43526957485757 -7.68644362303789 81.90439759695548 25.679664278526264 20.148855286215984 21.98350453031254 6.391328373456437 -14.785716962888284 0.0 0.0 0.0 -0.2364929045078512 0.017319889708006724 -1.3724763971817242 -46.44182180626347 18.81863698304458 -19.880223893130765 -47.66673604757136 8.47917791953343 9.073544491990997 0.0 0.0 0.0
